<svg version="1.0" xmlns="http://www.w3.org/2000/svg"
 width="60" height="28" viewBox="0 0 658.000000 278.000000"
 preserveAspectRatio="xMidYMid meet">

<g transform="translate(0.000000,278.000000) scale(0.100000,-0.100000)"
fill="#cbb8d4" stroke="none">
<path d="M2274 2341 c-2 -2 -4 -78 -4 -168 l0 -163 265 0 265 0 0 165 0 164
-261 3 c-143 2 -263 1 -265 -1z"/>
<path d="M3040 1470 l0 -860 265 0 265 0 0 860 0 860 -265 0 -265 0 0 -860z"/>
<path d="M530 1390 l0 -780 265 0 265 0 0 780 0 780 -265 0 -265 0 0 -780z"/>
<path d="M1132 2013 l3 -158 193 -3 192 -2 0 -160 0 -160 -195 0 -196 0 3
-137 3 -138 193 -3 192 -2 0 -160 0 -160 -192 -2 -193 -3 -3 -157 -3 -158 308
0 308 0 153 153 152 152 0 160 0 161 -75 74 -75 75 75 75 75 75 0 165 0 165
-153 153 -152 152 -308 0 -308 0 3 -157z"/>
<path d="M2270 1235 l0 -625 265 0 265 0 0 625 0 625 -265 0 -265 0 0 -625z"/>
<path d="M3717 1782 l-78 -78 3 -80 3 -79 113 -3 112 -3 0 -314 0 -314 -112
-3 -113 -3 -3 -147 -3 -148 223 0 223 0 158 158 157 157 0 310 0 310 -158 158
-157 157 -145 0 -145 0 -78 -78z"/>
<path d="M4767 1702 l-157 -157 0 -310 0 -310 158 -158 157 -157 178 0 177 0
0 150 0 150 -70 0 -70 0 0 315 0 314 68 3 67 3 3 158 3 157 -178 0 -178 0
-158 -158z"/>
<path d="M5352 1703 l3 -158 63 -3 62 -3 0 -314 0 -314 -62 -3 -63 -3 -3 -147
-3 -148 178 0 178 0 158 158 157 157 0 310 0 310 -158 158 -157 157 -178 0
-178 0 3 -157z"/>
</g>
</svg>
